PathFileType	4	(X/Y/Z)	Run_200 02
DataRate	CameraRate	NumFrames	NumMarkers	Units	OrigDataRate	OrigDataStartFrame	OrigNumFrames
100	100	4	42	mm	100	67	128
Frame#	Time	RASI			LPSI			RPSI			RTH2			RTH3			LTH1			LTH2			LTH3			RTB1			RTB2			LTB1			LTB2			LTB3			RCAL			RMT5			LCAL			LTOE			LMT5			LACR			RACR			CLAV			C7			RUA1			RUA2			RUA3			RLEL			LUA1			LUA2			LUA3			LLEL			RFAsuperior			RFAradius			RFAulna			LFAsuperior			LFAradius			LFAulna			RTOE			RTH1			LMEL			RTB3			RMEL			LASI			
		X1	Y1	Z1	X2	Y2	Z2	X3	Y3	Z3	X4	Y4	Z4	X5	Y5	Z5	X6	Y6	Z6	X7	Y7	Z7	X8	Y8	Z8	X9	Y9	Z9	X10	Y10	Z10	X11	Y11	Z11	X12	Y12	Z12	X13	Y13	Z13	X14	Y14	Z14	X15	Y15	Z15	X16	Y16	Z16	X17	Y17	Z17	X18	Y18	Z18	X19	Y19	Z19	X20	Y20	Z20	X21	Y21	Z21	X22	Y22	Z22	X23	Y23	Z23	X24	Y24	Z24	X25	Y25	Z25	X26	Y26	Z26	X27	Y27	Z27	X28	Y28	Z28	X29	Y29	Z29	X30	Y30	Z30	X31	Y31	Z31	X32	Y32	Z32	X33	Y33	Z33	X34	Y34	Z34	X35	Y35	Z35	X36	Y36	Z36	X37	Y37	Z37	X38	Y38	Z38	X39	Y39	Z39	X40	Y40	Z40	X41	Y41	Z41	X42	Y42	Z42	

59	0.78	1046.686515	1023.39762	-233.705214	893.745784	1084.066942	-420.783992	887.564242	1076.77175	-307.595603	988.379097	753.704547	-203.504427	1088.538987	625.735906	-202.469958	1004.377875	895.692676	-534.755273	946.024213	737.511155	-490.4341	1011.175567	609.136652	-479.294989	1073.031163	399.746738	-260.01753	986.701203	431.93027	-191.5537	1032.972944	383.445234	-397.412645	916.70141	312.773185	-451.723805	914.323738	198.838474	-384.919963	732.023332	295.837211	-253.421139	847.021741	134.21559	-180.757204	735.746385	111.494265	-363.626771	970.443723	71.369366	-347.121514	920.808954	37.390111	-444.290842	1042.735498	1501.360705	-529.080856	1046.22491	1489.980175	-200.700525	1103.642789	1454.649704	-330.695279	991.455075	1534.599754	-368.568947	920.577396	1409.139301	-146.479016	950.646056	1345.385536	-112.916942	867.856534	1283.796806	-79.48913899999999	822.622148	1235.459471	-54.409598	954.945766	1391.373935	-584.953559	989.2696999999999	1310.973308	-595.662181	925.927221	1235.479978	-614.09509	914.495557	1169.075184	-630.625515	890.0611730000001	1147.379202	-42.303212	1018.537441	1039.584511	-117.588607	977.963256	1013.854517	-67.601518	984.776507	1120.94393	-623.329969	1154.229664	1132.640803	-534.749879	1148.59994	1069.579375	-568.696104	899.185882	119.853401	-274.963951	985.8973130000001	903.739528	-185.846552	901.138332	1153.35426	-542.125828	922.089662	299.442143	-260.825082	823.793503	1206.495171	-139.220332	1070.732741	1008.773623	-476.714048	
60	0.79	1045.815121	1028.716879	-233.497941	894.628613	1088.801724	-421.720538	887.131536	1082.250783	-308.848364	990.270867	759.9083000000001	-202.429654	1092.930546	633.974651	-201.875721	1002.915558	898.49105	-533.829465	938.355422	742.343794	-489.337908	999.15788	611.930064	-477.83515	1085.192176	404.727772	-259.145259	996.3637189999999	433.25422	-192.391806	1015.801585	385.23345	-396.584792	899.055932	315.735584	-451.139524	896.244495	201.414846	-384.626184	750.232107	281.204078	-255.424544	874.491186	127.912192	-179.871976	717.344689	115.716432	-364.150458	950.904781	70.874036	-346.604774	900.660637	37.835665	-443.920676	1043.929581	1507.187557	-527.94774	1042.643859	1496.035048	-199.649491	1102.384491	1460.060271	-328.90886	990.963258	1539.796831	-368.208887	915.061098	1417.323696	-147.864692	943.436719	1353.760118	-112.199024	859.22908	1293.8063	-79.952895	812.644398	1246.461921	-55.434304	956.896153	1396.633119	-584.363658	992.864009	1316.522611	-594.691023	931.178508	1240.048437	-614.033171	919.8898840000001	1173.8431	-629.874089	879.411418	1158.414352	-42.82866	1008.687655	1050.951387	-116.472841	967.377765	1024.744126	-67.344233	991.361237	1128.848068	-620.817459	1158.578813	1148.259234	-530.102231	1156.007241	1084.20207	-562.523441	928.7253930000001	116.073451	-273.465207	985.119678	909.8512009999999	-184.623653	905.359841	1158.464755	-541.403115	939.584618	296.3056	-261.298033	814.472265	1217.426881	-140.096275	1069.930545	1013.991685	-476.482578	
61	0.8	1045.086689	1034.61122	-233.111864	896.146384	1094.097628	-422.898071	886.873481	1088.021268	-310.406781	991.746347	766.808437	-201.285832	1096.398257	642.554134	-201.143006	1001.640714	901.781129	-532.794384	930.75354	748.070005	-488.240677	987.116987	615.623668	-476.309691	1096.571758	409.958898	-258.194194	1005.262866	433.909596	-193.269283	998.72254	388.019592	-395.582468	881.6963909999999	319.58408	-450.741554	878.4724210000001	204.808338	-384.402096	769.544751	265.705904	-258.091058	902.7085970000001	121.616413	-179.277412	699.376008	121.071595	-364.933022	931.609657	70.814334	-346.905235	880.5478450000001	38.324397	-443.655941	1044.876493	1513.463901	-526.609025	1039.378855	1502.426718	-198.540261	1101.262333	1466.137125	-327.095951	990.549188	1545.453507	-367.545331	910.0216390000001	1425.927507	-149.196528	936.6419069999999	1362.504993	-111.678626	850.958856	1304.142881	-80.67923399999999	803.03557	1257.748244	-56.87822	958.734573	1402.610929	-583.672149	996.059291	1322.850088	-593.854017	935.930051	1245.543141	-614.216544	924.670614	1179.459123	-629.307176	869.091489	1169.71865	-43.694406	999.479312	1062.895426	-115.572913	957.618545	1036.19933	-67.227164	997.071858	1137.449968	-618.577852	1161.730262	1164.465667	-525.704105	1162.156442	1099.675271	-556.713571	958.999295	112.875154	-271.955303	984.322258	916.6066	-183.220677	908.937594	1164.464302	-540.851858	956.094061	292.367272	-261.763073	805.390685	1228.702507	-141.33344	1069.270964	1019.784437	-476.07375	
62	0.8100000000000001	1044.514692	1040.937758	-232.591223	898.1809040000001	1099.775693	-424.127707	886.976998	1094.322428	-311.576513	992.7354	774.2689360000001	-200.21113	1098.718851	651.258178	-200.492793	1000.652306	905.571185	-531.638992	923.487578	754.5152869999999	-487.418804	975.4634139999999	620.1623039999999	-475.056454	1107.110506	415.366255	-257.182385	1013.358116	433.833347	-194.087032	981.832668	391.858404	-394.779304	864.669534	324.247585	-450.588254	861.092042	209.074801	-384.396408	790.085945	249.512814	-261.544587	931.482767	115.495068	-179.035041	682.010034	127.589138	-366.010168	912.470897	70.89800200000001	-347.496908	860.736795	39.250329	-444.200118	1045.768714	1520.028367	-525.091939	1036.516798	1508.988303	-197.400998	1100.282778	1472.63202	-325.191387	990.219085	1551.450537	-366.730247	905.5197460000001	1434.661061	-150.651456	930.369049	1371.438438	-111.403376	843.176879	1314.665001	-81.762721	793.9143790000001	1269.120579	-58.858744	960.697005	1409.256673	-583.179142	998.874418	1329.774784	-593.198874	939.830812	1251.941248	-614.562688	928.753552	1185.764373	-628.993026	859.322207	1181.163959	-44.906215	990.98496	1075.0332	-114.838428	948.583086	1047.895519	-67.25953199999999	1001.972723	1146.61203	-616.6980610000001	1163.692923	1180.827369	-521.522972	1167.016087	1115.503122	-551.269399	989.95323	110.313174	-270.694491	983.604927	923.930935	-181.723481	911.779091	1171.192622	-540.538129	972.244162	287.775805	-262.170855	796.772169	1240.062432	-143.086325	1068.767865	1026.010218	-475.531703	
